<?xml version="1.0" encoding="UTF-8" standalone="no"?>
<!-- Created with Inkscape (http://www.inkscape.org/) -->

<svg
   xmlns:dc="http://purl.org/dc/elements/1.1/"
   xmlns:cc="http://creativecommons.org/ns#"
   xmlns:rdf="http://www.w3.org/1999/02/22-rdf-syntax-ns#"
   xmlns:svg="http://www.w3.org/2000/svg"
   xmlns="http://www.w3.org/2000/svg"
   xmlns:sodipodi="http://sodipodi.sourceforge.net/DTD/sodipodi-0.dtd"
   xmlns:inkscape="http://www.inkscape.org/namespaces/inkscape"
   width="800"
   height="100"
   id="svg2"
   version="1.1"
   inkscape:version="0.48.5 r10040"
   sodipodi:docname="minerenim slow svg test.svg">
  <defs
     id="defs4">
    <marker
       inkscape:stockid="Arrow1Lstart"
       orient="auto"
       refY="0.0"
       refX="0.0"
       id="Arrow1Lstart"
       style="overflow:visible">
      <path
         id="path3801"
         d="M 0.0,0.0 L 5.0,-5.0 L -12.5,0.0 L 5.0,5.0 L 0.0,0.0 z "
         style="fill-rule:evenodd;stroke:#000000;stroke-width:1.0pt"
         transform="scale(0.8) translate(12.5,0)" />
    </marker>
  </defs>
  <sodipodi:namedview
     id="base"
     pagecolor="#ffffff"
     bordercolor="#666666"
     borderopacity="1.0"
     inkscape:pageopacity="0.0"
     inkscape:pageshadow="2"
     inkscape:zoom="0.98994949"
     inkscape:cx="468.40885"
     inkscape:cy="-30.0336"
     inkscape:document-units="px"
     inkscape:current-layer="text2985"
     showgrid="false"
     inkscape:window-width="1366"
     inkscape:window-height="746"
     inkscape:window-x="-8"
     inkscape:window-y="-8"
     inkscape:window-maximized="1" />
  <metadata
     id="metadata7">
    <rdf:RDF>
      <cc:Work
         rdf:about="">
        <dc:format>image/svg+xml</dc:format>
        <dc:type
           rdf:resource="http://purl.org/dc/dcmitype/StillImage" />
        <dc:title></dc:title>
      </cc:Work>
    </rdf:RDF>
  </metadata>
  <g
     inkscape:label="Layer 1"
     inkscape:groupmode="layer"
     id="layer1"
     transform="translate(0,-952.36218)">
    <g
       style="font-size:158.12661743px;font-style:normal;font-variant:normal;font-weight:normal;font-stretch:normal;text-align:center;line-height:125%;letter-spacing:-5.4900012px;word-spacing:0px;writing-mode:lr-tb;text-anchor:middle;fill:#000000;fill-opacity:1;stroke:none;font-family:alberto;-inkscape-font-specification:alberto"
       id="text2985">
      <path
         d="M 41.40625 0 C 33.620442 0.0001 25.732849 2.42667 17.75 7.25 C 5.9235032 15.64801 -2.8719839e-006 25.29181 0 36.1875 L 0 99.46875 L 0.59375 100 L 9.75 100 L 10.34375 99.46875 L 10.34375 41.34375 C 10.343735 35.40067 11.026479 30.84322 12.40625 27.65625 C 19.058626 15.25323 29.309372 9.03134 43.15625 9.03125 C 49.857873 9.03134 56.065055 10.58682 61.78125 13.6875 C 68.285746 17.39129 72.927911 23.16201 75.6875 31 C 76.130914 35.65123 76.614123 38.00006 77.15625 38 L 86.625 38 L 86.9375 37.71875 C 87.331625 33.41218 88.014368 30.06803 89 27.65625 C 95.800131 15.25323 106.05088 9.03134 119.75 9.03125 C 128.66901 9.03134 136.15753 11.53565 142.21875 16.53125 C 149.5116 21.61316 153.15609 29.88818 153.15625 41.34375 L 153.15625 99.46875 L 153.75 100 L 162.90625 100 L 163.5 99.46875 L 163.5 36.1875 C 163.49984 28.90937 160.45395 21.6609 154.34375 14.46875 C 144.68531 4.82199 133.9201 0.0001 122.09375 0 L 117.6875 0 C 113.94232 0.0001 109.30017 0.8712 103.78125 2.59375 C 93.28515 6.81434 85.996154 12.58506 81.90625 19.90625 L 81.59375 19.90625 L 78.34375 15 C 68.241887 5.00871 57.392541 0.0001 45.8125 0 L 41.40625 0 z M 677.90625 0 C 670.12045 0.0001 662.23285 2.42667 654.25 7.25 C 642.4235 15.64801 636.5 25.29181 636.5 36.1875 L 636.5 99.46875 L 637.09375 100 L 646.25 100 L 646.84375 99.46875 L 646.84375 41.34375 C 646.84373 35.40067 647.52648 30.84322 648.90625 27.65625 C 655.55863 15.25323 665.80937 9.03134 679.65625 9.03125 C 686.35787 9.03134 692.56506 10.58682 698.28125 13.6875 C 704.78575 17.39129 709.42791 23.16201 712.1875 31 C 712.63092 35.65123 713.11411 38.00006 713.65625 38 L 723.125 38 L 723.4375 37.71875 C 723.83162 33.41218 724.51437 30.06803 725.5 27.65625 C 732.30014 15.25323 742.55088 9.03134 756.25 9.03125 C 765.16901 9.03134 772.65753 11.53565 778.71875 16.53125 C 786.0116 21.61316 789.65609 29.88818 789.65625 41.34375 L 789.65625 99.46875 L 790.25 100 L 799.40625 100 L 800 99.46875 L 800 36.1875 C 799.99984 28.90937 796.95394 21.6609 790.84375 14.46875 C 781.18531 4.82199 770.42009 0.0001 758.59375 0 L 754.1875 0 C 750.44233 0.0001 745.80017 0.8712 740.28125 2.59375 C 729.78515 6.81434 722.49615 12.58506 718.40625 19.90625 L 718.09375 19.90625 L 714.84375 15 C 704.7419 5.00871 693.89254 0.0001 682.3125 0 L 677.90625 0 z M 166.21875 8.78125 L 165.625 9.3125 L 165.625 19.375 L 166.21875 19.90625 L 175.40625 19.90625 L 176 19.375 L 176 9.3125 L 175.40625 8.78125 L 166.21875 8.78125 z M 624.3125 8.78125 L 623.71875 9.3125 L 623.71875 19.375 L 624.3125 19.90625 L 633.46875 19.90625 L 634.0625 19.375 L 634.0625 9.3125 L 633.46875 8.78125 L 624.3125 8.78125 z M 219.5 24.03125 C 212.94611 24.03133 205.65712 26.08445 197.625 30.21875 C 184.81296 39.0474 178.40625 49.06465 178.40625 60.21875 L 178.40625 99.46875 L 179 100 L 188.1875 100 L 188.75 99.46875 L 188.75 64.09375 C 188.74999 59.14115 189.46398 55.0036 190.84375 51.6875 C 197.5454 39.28443 207.79614 33.06257 221.59375 33.0625 C 229.47801 33.06257 236.08428 34.96023 241.40625 38.75 C 250.47315 43.91802 254.99991 52.7996 255 65.375 L 255 99.46875 L 255.59375 100 L 264.75 100 L 265.34375 99.46875 L 265.34375 60.21875 C 265.34366 52.98365 262.29776 45.7352 256.1875 38.5 C 246.47985 28.85321 235.71464 24.03133 223.9375 24.03125 L 219.5 24.03125 z M 308.875 24.03125 C 299.90654 24.03133 291.02128 27.14227 282.25 33.34375 C 272.39459 41.78481 267.46875 50.6352 267.46875 59.9375 L 267.46875 63.8125 C 267.46875 71.1768 270.63003 78.50305 276.9375 85.78125 C 286.5465 95.25585 297.19631 100 308.875 100 L 312.71875 100 C 323.06687 100 332.71901 96.2824 341.6875 88.875 L 334.59375 82.6875 L 334.28125 82.6875 C 327.18529 88.2 319.41309 90.96875 310.9375 90.96875 C 300.88494 90.96875 292.31461 87.4379 285.21875 80.375 C 280.68525 74.6042 278.40625 70.01555 278.40625 66.65625 L 353.8125 66.65625 L 354.40625 66.15625 L 354.40625 59.9375 C 354.40617 53.3484 351.44441 46.28667 345.53125 38.75 C 335.57722 28.93096 324.84325 24.03133 313.3125 24.03125 L 308.875 24.03125 z M 397.9375 24.03125 C 388.96905 24.03133 380.08379 27.14227 371.3125 33.34375 C 361.45708 41.78481 356.53124 50.6352 356.53125 59.9375 L 356.53125 99.46875 L 357.125 100 L 366.28125 100 L 366.875 99.46875 L 366.875 64.84375 C 366.87499 58.12545 368.07219 52.80585 370.4375 48.84375 C 377.77975 38.33561 387.4319 33.06257 399.40625 33.0625 C 406.45282 33.06257 412.97492 34.80476 418.9375 38.25 C 425.04778 41.6523 429.45916 47.23634 432.21875 55.03125 C 432.76071 59.85475 433.27519 62.28125 433.71875 62.28125 L 442.875 62.28125 L 443.46875 61.75 L 443.46875 59.9375 C 443.46866 53.3484 440.5069 46.28667 434.59375 38.75 C 424.63972 28.93096 413.90576 24.03133 402.375 24.03125 L 397.9375 24.03125 z M 487 24.03125 C 478.03154 24.03133 469.14628 27.14227 460.375 33.34375 C 450.51958 41.78481 445.59375 50.6352 445.59375 59.9375 L 445.59375 63.8125 C 445.59375 71.1768 448.75502 78.50305 455.0625 85.78125 C 464.67149 95.25585 475.3213 100 487 100 L 490.84375 100 C 501.19187 100 510.84401 96.2824 519.8125 88.875 L 512.71875 82.6875 L 512.40625 82.6875 C 505.3103 88.2 497.53809 90.96875 489.0625 90.96875 C 479.00995 90.96875 470.43962 87.4379 463.34375 80.375 C 458.81024 74.6042 456.53124 70.01555 456.53125 66.65625 L 531.9375 66.65625 L 532.53125 66.15625 L 532.53125 59.9375 C 532.53116 53.3484 529.5694 46.28667 523.65625 38.75 C 513.70221 28.93096 502.96827 24.03133 491.4375 24.03125 L 487 24.03125 z M 575.75 24.03125 C 569.19611 24.03133 561.90713 26.08445 553.875 30.21875 C 541.06297 39.0474 534.65625 49.06465 534.65625 60.21875 L 534.65625 99.46875 L 535.25 100 L 544.40625 100 L 545 99.46875 L 545 64.09375 C 544.99999 59.14115 545.68273 55.0036 547.0625 51.6875 C 553.76415 39.28443 564.0149 33.06257 577.8125 33.0625 C 585.69677 33.06257 592.30302 34.96023 597.625 38.75 C 606.69189 43.91802 611.24991 52.7996 611.25 65.375 L 611.25 99.46875 L 611.8125 100 L 621 100 L 621.59375 99.46875 L 621.59375 60.21875 C 621.59366 52.98365 618.51652 45.7352 612.40625 38.5 C 602.6986 28.85321 591.96465 24.03133 580.1875 24.03125 L 575.75 24.03125 z M 166.53125 30.21875 L 165.9375 30.75 L 165.9375 99.46875 L 166.53125 100 L 175.6875 100 L 176.28125 99.46875 L 176.28125 30.75 L 175.6875 30.21875 L 166.53125 30.21875 z M 624.59375 30.21875 L 624 30.75 L 624 99.46875 L 624.59375 100 L 633.78125 100 L 634.375 99.46875 L 634.375 30.75 L 633.78125 30.21875 L 624.59375 30.21875 z M 310.34375 33.0625 C 320.64258 33.06257 329.41245 36.59344 336.65625 43.65625 C 341.18965 49.42723 343.46868 54.0159 343.46875 57.375 L 278.40625 57.375 C 278.40625 54.9203 279.88711 51.38934 282.84375 46.78125 C 290.08745 37.65125 299.25638 33.06257 310.34375 33.0625 z M 488.46875 33.0625 C 498.7676 33.06257 507.53746 36.59344 514.78125 43.65625 C 519.31466 49.42723 521.59367 54.0159 521.59375 57.375 L 456.53125 57.375 C 456.53124 54.9203 458.01211 51.38934 460.96875 46.78125 C 468.21244 37.65125 477.38139 33.06257 488.46875 33.0625 z "
         id="path2990"
         transform="translate(0,952.36218)"
         style="stroke:#000000;stroke-opacity:1;fill:none;fill-opacity:1;stroke-width:2;stroke-miterlimit:4;stroke-dasharray:none;stroke-dashoffset:0;marker-start:none;marker-mid:none;stroke-linejoin:round;stroke-linecap:round" />
    </g>
  </g>
</svg>
