<?xml version="1.0" encoding="UTF-8" standalone="no"?>
<!-- Created with Inkscape (http://www.inkscape.org/) -->

<svg
   xmlns:dc="http://purl.org/dc/elements/1.1/"
   xmlns:cc="http://creativecommons.org/ns#"
   xmlns:rdf="http://www.w3.org/1999/02/22-rdf-syntax-ns#"
   xmlns:svg="http://www.w3.org/2000/svg"
   xmlns="http://www.w3.org/2000/svg"
   version="1.1"
   width="800"
   height="100"
   id="svg2">
  <defs
     id="defs4" />
  <metadata
     id="metadata7">
    <rdf:RDF>
      <cc:Work
         rdf:about="">
        <dc:format>image/svg+xml</dc:format>
        <dc:type
           rdf:resource="http://purl.org/dc/dcmitype/StillImage" />
        <dc:title></dc:title>
      </cc:Work>
    </rdf:RDF>
  </metadata>
  <g
     transform="translate(0,-952.36218)"
     id="layer1">
    <g
       id="text2985"
       style="font-size:158.12661743px;font-style:normal;font-variant:normal;font-weight:normal;font-stretch:normal;text-align:center;line-height:125%;letter-spacing:-5.4900012px;word-spacing:0px;writing-mode:lr-tb;text-anchor:middle;fill:#000000;fill-opacity:1;stroke:none;font-family:alberto;-inkscape-font-specification:alberto">
      <g
         transform="matrix(0.95732797,0,0,0.83666969,50.517485,682.25115)"
         id="g3008">
        <path
           d="m -9.5315087,322.8407 4.6326158,0 c 12.0962106,1.2e-4 23.4203709,5.97104 33.9725159,17.91278 l 3.397251,5.86798 0.308841,0 c 4.272208,-8.75039 11.890279,-15.64784 22.854238,-20.69235 5.764915,-2.05882 10.60342,-3.08829 14.515529,-3.08841 l 4.632616,0 c 12.353498,1.2e-4 23.574712,5.76514 33.663672,17.2951 6.38255,8.59616 9.5739,17.24371 9.57407,25.94264 l 0,75.66606 -0.61768,0.61768 -9.57407,0 -0.61768,-0.61768 0,-69.48924 c -1.7e-4,-13.69187 -3.8092,-23.57477 -11.427121,-29.64874 -6.331387,-5.97082 -14.155353,-8.95628 -23.47192,-8.95639 -14.309749,1.1e-4 -25.016228,7.41229 -32.119469,22.23656 -1.029566,2.8826 -1.750194,6.89753 -2.161887,12.0448 l -0.308841,0.30884 -9.882914,0 c -0.566292,7e-5 -1.081027,-2.77949 -1.544205,-8.33871 -2.882596,-9.36808 -7.721101,-16.26553 -14.515529,-20.69235 -5.9709897,-3.70598 -12.45664521,-5.55903 -19.4569864,-5.55914 -14.4640906,1.1e-4 -25.1705696,7.41229 -32.1194696,22.23656 -1.441273,3.80912 -2.161902,9.26531 -2.161887,16.36857 l 0,69.48924 -0.617682,0.61768 -9.574073,0 -0.617682,-0.61768 0,-75.66606 c -3e-6,-13.0227 6.176811,-24.55276 18.530463,-34.59019 8.338678,-5.76492 16.574431,-8.64743 24.7072843,-8.64755 z"
           id="path2990" />
        <path
           d="m 120.86855,333.34129 9.57408,0 0.61768,0.61768 0,12.04481 -0.61768,0.61768 -9.57408,0 -0.61768,-0.61768 0,-12.04481 z m 0.30884,25.63381 9.57408,0 0.61768,0.61768 0,82.15172 -0.61768,0.61768 -9.57408,0 -0.61768,-0.61768 0,-82.15172 z"
           id="path2992" />
        <path
           d="m 176.52908,351.56291 4.63262,0 c 12.3021,9e-5 23.52331,5.76512 33.66367,17.2951 6.38262,8.64762 9.57398,17.29516 9.57407,25.94265 l 0,46.94384 -0.61768,0.61768 -9.57407,0 -0.61768,-0.61768 0,-40.76702 c -9e-5,-15.03021 -4.73565,-25.63374 -14.20669,-31.81063 -5.5592,-4.52959 -12.45665,-6.79442 -20.69235,-6.7945 -14.41262,8e-5 -25.1191,7.41226 -32.11947,22.23656 -1.44127,3.96351 -2.1619,8.90496 -2.16189,14.82437 l 0,42.31122 -0.61768,0.61768 -9.57407,0 -0.61769,-0.61768 0,-46.94384 c 0,-13.33158 6.69155,-25.27342 20.07467,-35.82556 8.39015,-4.94137 16.00822,-7.4121 22.85424,-7.41219 z"
           id="path2994" />
        <path
           d="m 269.86821,351.56291 4.63262,0 c 12.04473,9e-5 23.26595,5.86807 33.66367,17.60394 6.17673,9.00793 9.26514,17.44958 9.26523,25.32497 l 0,7.41219 -0.61768,0.61768 -78.75447,0 c -1e-5,4.01497 2.36777,9.47115 7.10335,16.36857 7.41215,8.44167 16.36853,12.6625 26.86917,12.66249 8.85338,10e-6 16.98619,-3.29429 24.39844,-9.88292 l 0.30884,0 7.41219,7.41219 c -9.36825,8.85345 -19.45705,13.28016 -30.26643,13.28016 l -4.01493,0 c -12.19926,0 -23.31752,-5.66208 -33.35483,-16.98626 -6.58862,-8.69899 -9.88292,-17.44948 -9.88292,-26.25148 l 0,-4.63262 c 0,-11.11822 5.14735,-21.72175 15.44206,-31.81063 9.16225,-7.4121 18.42747,-11.11819 27.79569,-11.11828 z m -31.81063,39.8405 67.94503,0 c -8e-5,-4.01488 -2.36786,-9.47107 -7.10334,-16.36858 -7.56668,-8.44158 -16.72895,-12.6624 -27.48685,-12.66248 -11.58158,8e-5 -21.15564,5.45627 -28.72222,16.36858 -3.08843,5.50772 -4.63263,9.72854 -4.63262,12.66248 z"
           id="path2996" />
        <path
           d="m 362.89851,351.56291 4.63262,0 c 12.04474,9e-5 23.26595,5.86807 33.66367,17.60394 6.17673,9.00793 9.26514,17.44958 9.26524,25.32497 l 0,2.16189 -0.61769,0.61768 -9.57407,0 c -0.46334,4e-5 -0.97808,-2.88247 -1.5442,-8.64755 -2.8826,-9.31664 -7.51521,-16.00819 -13.89785,-20.07467 -6.22836,-4.1178 -13.02285,-6.17674 -20.38351,-6.17682 -12.5081,8e-5 -22.5969,6.27984 -30.26642,18.8393 -2.47075,4.73562 -3.70611,11.11833 -3.7061,19.14815 l 0,41.3847 -0.61768,0.61768 -9.57407,0 -0.61768,-0.61768 0,-47.25268 c -1e-5,-11.11822 5.14734,-21.72175 15.44205,-31.81063 9.16226,-7.4121 18.42748,-11.11819 27.79569,-11.11828 z"
           id="path2998" />
        <path
           d="m 455.92882,351.56291 4.63261,0 c 12.04474,9e-5 23.26595,5.86807 33.66368,17.60394 6.17673,9.00793 9.26514,17.44958 9.26523,25.32497 l 0,7.41219 -0.61768,0.61768 -78.75447,0 c -1e-5,4.01497 2.36776,9.47115 7.10334,16.36857 7.41216,8.44167 16.36854,12.6625 26.86918,12.66249 8.85338,10e-6 16.98619,-3.29429 24.39844,-9.88292 l 0.30884,0 7.41218,7.41219 c -9.36825,8.85345 -19.45704,13.28016 -30.26642,13.28016 l -4.01493,0 c -12.19926,0 -23.31752,-5.66208 -33.35483,-16.98626 -6.58862,-8.69899 -9.88292,-17.44948 -9.88292,-26.25148 l 0,-4.63262 c 0,-11.11822 5.14734,-21.72175 15.44205,-31.81063 9.16226,-7.4121 18.42748,-11.11819 27.7957,-11.11828 z m -31.81063,39.8405 67.94503,0 c -8e-5,-4.01488 -2.36786,-9.47107 -7.10334,-16.36858 -7.56668,-8.44158 -16.72895,-12.6624 -27.48686,-12.66248 -11.58157,8e-5 -21.15564,5.45627 -28.72221,16.36858 -3.08843,5.50772 -4.63263,9.72854 -4.63262,12.66248 z"
           id="path3000" />
        <path
           d="m 548.65025,351.56291 4.63262,0 c 12.3021,9e-5 23.52331,5.76512 33.66367,17.2951 6.38262,8.64762 9.57398,17.29516 9.57407,25.94265 l 0,46.94384 -0.61768,0.61768 -9.57407,0 -0.61768,-0.61768 0,-40.76702 c -9e-5,-15.03021 -4.73565,-25.63374 -14.20669,-31.81063 -5.5592,-4.52959 -12.45665,-6.79442 -20.69235,-6.7945 -14.41262,8e-5 -25.1191,7.41226 -32.11947,22.23656 -1.44127,3.96351 -2.1619,8.90496 -2.16189,14.82437 l 0,42.31122 -0.61768,0.61768 -9.57407,0 -0.61769,-0.61768 0,-46.94384 c 0,-13.33158 6.69155,-25.27342 20.07467,-35.82556 8.39015,-4.94137 16.00822,-7.4121 22.85424,-7.41219 z"
           id="path3002" />
        <path
           d="m 599.3693,333.34129 9.57407,0 0.61769,0.61768 0,12.04481 -0.61769,0.61768 -9.57407,0 -0.61768,-0.61768 0,-12.04481 z m 0.30884,25.63381 9.57407,0 0.61769,0.61768 0,82.15172 -0.61769,0.61768 -9.57407,0 -0.61768,-0.61768 0,-82.15172 z"
           id="path3004" />
        <path
           d="m 655.33867,322.8407 4.63262,0 c 12.09621,1.2e-4 23.42037,5.97104 33.97251,17.91278 l 3.39725,5.86798 0.30884,0 c 4.27221,-8.75039 11.89028,-15.64784 22.85424,-20.69235 5.76492,-2.05882 10.60342,-3.08829 14.51553,-3.08841 l 4.63262,0 c 12.35349,1.2e-4 23.57471,5.76514 33.66367,17.2951 6.38254,8.59616 9.5739,17.24371 9.57407,25.94264 l 0,75.66606 -0.61768,0.61768 -9.57407,0 -0.61768,-0.61768 0,-69.48924 c -1.7e-4,-13.69187 -3.8092,-23.57477 -11.42712,-29.64874 -6.33139,-5.97082 -14.15536,-8.95628 -23.47192,-8.95639 -14.30975,1.1e-4 -25.01623,7.41229 -32.11947,22.23656 -1.02957,2.8826 -1.7502,6.89753 -2.16189,12.0448 l -0.30884,0.30884 -9.88291,0 c -0.5663,7e-5 -1.08103,-2.77949 -1.54421,-8.33871 -2.8826,-9.36808 -7.7211,-16.26553 -14.51553,-20.69235 -5.97099,-3.70598 -12.45664,-5.55903 -19.45698,-5.55914 -14.46409,1.1e-4 -25.17057,7.41229 -32.11947,22.23656 -1.44128,3.80912 -2.16191,9.26531 -2.16189,16.36857 l 0,69.48924 -0.61768,0.61768 -9.57408,0 -0.61768,-0.61768 0,-75.66606 c 0,-13.0227 6.17681,-24.55276 18.53047,-34.59019 8.33867,-5.76492 16.57443,-8.64743 24.70728,-8.64755 z"
           id="path3006" />
      </g>
    </g>
  </g>
</svg>
