<svg version="1.1" id="Layer_1" xmlns="http://www.w3.org/2000/svg" xmlns:xlink="http://www.w3.org/1999/xlink"
     x="0px" y="0px" width="402px" height="396px"
     xml:space="preserve">
  <path id="path456"
        fill="none" stroke="#000000" stroke-width="1" stroke-miterlimit="10" stroke-dasharray="6,5,3,3,3,3"
        d="M198,85.27
           c0,55.229-44.771,100-100,100c-49.706,0-90-40.294-90-90c0-44.735,36.265-81,81-81c40.262,0,72.9,32.639,72.9,72.9
           c0,36.236-29.375,65.61-65.61,65.61c-32.612,0-59.049-26.437-59.049-59.049c0-29.351,23.793-53.144,53.144-53.144
           c26.416,0,47.83,21.414,47.83,47.83c0,23.774-19.272,43.047-43.047,43.047c-21.396,0-38.742-17.346-38.742-38.742
           c0-19.257,15.611-34.868,34.868-34.868c17.331,0,31.381,14.05,31.381,31.381c0,15.598-12.645,28.243-28.243,28.243
           c-14.039,0-25.419-11.38-25.419-25.418c0-12.634,10.243-22.876,22.877-22.876c11.371,0,20.589,9.218,20.589,20.589
           c0,10.234-8.297,18.53-18.53,18.53c-9.211,0-16.677-7.467-16.677-16.677c0-8.29,6.72-15.009,15.009-15.009
           c7.46,0,13.509,6.048,13.509,13.508c0,6.715-5.443,12.158-12.158,12.158c-6.043,0-10.942-4.899-10.942-10.942
           c0-5.438,4.409-9.848,9.848-9.848c4.895,0,8.863,3.968,8.863,8.863c0,4.406-3.572,7.977-7.977,7.977
           c-3.965,0-7.179-3.214-7.179-7.179" />
</svg>
